<svg width="16" height="17" viewBox="0 0 16 17" fill="none" xmlns="http://www.w3.org/2000/svg">
<g id="vuesax/bold/location">
<path id="Vector" d="M13.7467 6.13341C13.0467 3.05341 10.3601 1.66675 8.00006 1.66675C8.00006 1.66675 8.00006 1.66675 7.9934 1.66675C5.64006 1.66675 2.94673 3.04675 2.24673 6.12675C1.46673 9.56675 3.5734 12.4801 5.48006 14.3134C6.18673 14.9934 7.0934 15.3334 8.00006 15.3334C8.90673 15.3334 9.8134 14.9934 10.5134 14.3134C12.4201 12.4801 14.5267 9.57341 13.7467 6.13341ZM8.00006 9.47341C6.84006 9.47341 5.90006 8.53342 5.90006 7.37341C5.90006 6.21342 6.84006 5.27341 8.00006 5.27341C9.16006 5.27341 10.1001 6.21342 10.1001 7.37341C10.1001 8.53342 9.16006 9.47341 8.00006 9.47341Z" fill="#A2A2A2"/>
</g>
</svg>
