<svg width="24" height="24" viewBox="0 0 24 24" fill="none" xmlns="http://www.w3.org/2000/svg">
<g id="Group 17">
<path id="Vector" d="M12 24C18.6274 24 24 18.6274 24 12C24 5.37258 18.6274 0 12 0C5.37258 0 0 5.37258 0 12C0 18.6274 5.37258 24 12 24Z" fill="#6EBF43"/>
<path id="Vector_2" d="M9.73338 11.951C9.70002 11.9791 9.66004 11.9959 9.61825 11.9993C9.57647 12.0027 9.53469 11.9927 9.49796 11.9703C7.70344 10.8758 5.76417 11.434 5.34317 11.5239C5.32975 11.5271 5.31605 11.5286 5.30233 11.5285C5.26215 11.5287 5.22277 11.5162 5.18867 11.4927C5.15457 11.4692 5.12715 11.4355 5.10954 11.3955C5.05609 11.273 5.12456 11.1593 5.22065 11.0734C5.52874 10.7973 7.53888 8.93231 9.76102 11.5964C9.78135 11.6211 9.79685 11.6502 9.80654 11.6819C9.81622 11.7136 9.81988 11.7471 9.81728 11.7804C9.81469 11.8137 9.80589 11.8461 9.79146 11.8755C9.77702 11.9048 9.75724 11.9306 9.73338 11.951Z" fill="black"/>
<path id="Vector_3" d="M14.2729 11.951C14.3088 11.9791 14.3519 11.9959 14.3969 11.9993C14.4419 12.0027 14.4869 11.9927 14.5264 11.9703C16.4591 10.8758 18.5476 11.434 19.0004 11.5239C19.0151 11.527 19.03 11.5286 19.045 11.5285C19.0883 11.5287 19.1307 11.5162 19.1674 11.4927C19.2042 11.4692 19.2337 11.4355 19.2527 11.3955C19.3096 11.273 19.2365 11.1593 19.133 11.0734C18.8005 10.7973 16.6363 8.93231 14.2431 11.5964C14.2212 11.6211 14.2045 11.6502 14.1941 11.6819C14.1837 11.7136 14.1797 11.7471 14.1825 11.7804C14.1853 11.8137 14.1948 11.8461 14.2103 11.8755C14.2259 11.9048 14.2472 11.9306 14.2729 11.951Z" fill="black"/>
<path id="Vector_4" d="M7.63623 16C7.63623 16 8.34497 19.2727 11.9999 19.2727C15.6236 19.2727 16.3635 16 16.3635 16H7.63623Z" fill="black"/>
</g>
</svg>
